<svg xmlns="http://www.w3.org/2000/svg" viewBox="0 0 1024 1024" role="img" aria-labelledby="title">
  <title id="title">RoomHash mesh mark</title>
  <defs>
    <radialGradient id="tile" cx="50%" cy="42%" r="72%">
      <stop offset="0" stop-color="#12243a"/>
      <stop offset="1" stop-color="#08111e"/>
    </radialGradient>
    <linearGradient id="gold" x1="0" y1="0" x2="1" y2="1">
      <stop offset="0" stop-color="#ffc94f"/>
      <stop offset="1" stop-color="#f2a928"/>
    </linearGradient>
  </defs>

  <rect x="16" y="16" width="992" height="992" rx="220" fill="url(#tile)"/>
  <rect x="26" y="26" width="972" height="972" rx="210" fill="none" stroke="#22334a" stroke-width="12"/>

  <g fill="none" stroke="url(#gold)" stroke-width="76" stroke-linecap="round" stroke-linejoin="round">
    <path d="M398 300v424M626 300v424M302 420h420M302 604h420"/>
    <path d="M374 374 286 286M650 374l88-88M374 650l-88 88M650 650l88 88"/>
  </g>

  <g fill="url(#gold)">
    <circle cx="246" cy="246" r="96"/>
    <circle cx="778" cy="246" r="96"/>
    <circle cx="246" cy="778" r="96"/>
    <circle cx="778" cy="778" r="96"/>
  </g>
  <g fill="#0b1727">
    <circle cx="246" cy="246" r="38"/>
    <circle cx="778" cy="246" r="38"/>
    <circle cx="246" cy="778" r="38"/>
    <circle cx="778" cy="778" r="38"/>
  </g>
</svg>
